[center][IMG]http://img63.imageshack.us/img63/1050/hddesirockers.png[/IMG]
[IMG]http://img156.imageshack.us/img156/5382/roadsignphp.png[/IMG]


[IMG]http://img137.imageshack.us/img137/7919/dvdbluraylogo.gif[/IMG]

[IMG]http://img209.imageshack.us/img209/3343/25ic0hd1.png[/IMG]
[b]An ancient Ring thought lost for centuries has been found, and through a strange twist in fate has been given to a small Hobbit named Frodo. When Gandalf discovers the Ring is in fact the One Ring of the Dark Lord Sauron, Frodo must make an epic quest to the Cracks of Doom in order to destroy it! However he does not go alone. He is joined by Gandalf, Legolas the elf, Gimli the Dwarf, Aragorn, Boromir and his three Hobbit friends Merry, Pippin and Samwise. Through mountains, snow, darkness, forests, rivers and plains, facing evil and danger at every corner the Fellowship of the Ring must go. Their quest to destroy the One Ring is the only hope for the end of the Dark Lords reign! [/b]

[IMG]http://img692.imageshack.us/img692/4868/zvbzx21.png[/IMG]
[b]General
Unique ID                        : 204936303872686355910816909501887715594 (0x9A2D4BE2F8721E1AA0C6D4AB4D00990A)
Complete name                    : D:\HD Hindi Dubbed Box sets\Lord of the Rings Triology Pack Extended Hindi-Eng\The Fellowship of the Ring Hindi-Eng\The Fellowship of the Ring Hindi-Eng.mkv
Format                           : Matroska
File size                        : 4.27 GiB
Duration                         : 3h 48mn
Overall bit rate                 : 2 679 Kbps
Movie name                       : Lord of the Rings Fellow Shio of the Ring {Hindi-Eng}~VKS3385
Encoded date                     : UTC 2011-01-22 15:08:39
Writing application              : mkvmerge v4.4.0 ('Die Wiederkehr') built on Oct 31 2010 21:52:48
Writing library                  : libebml v1.0.0 + libmatroska v1.0.0[/b]

[IMG]http://img839.imageshack.us/img839/7057/imdb3.png[/IMG]
[size=5][url]http://www.imdb.com/title/tt0120737/[/url][/size]

[IMG]http://img214.imageshack.us/img214/241/windowsmediaplayerfile.png[/IMG]
[b]Video
ID                               : 1
Format                           : AVC
Format/Info                      : Advanced Video Codec
Format profile                   : High@L4.0
Format settings, CABAC           : Yes
Format settings, ReFrames        : 8 frames
Muxing mode                      : Header stripping
Codec ID                         : V_MPEG4/ISO/AVC
Duration                         : 3h 48mn
Bit rate                         : 2 114 Kbps
Width                            : 1 280 pixels
Height                           : 528 pixels
Display aspect ratio             : 2.40:1
Frame rate                       : 23.976 fps
Color space                      : YUV
Chroma subsampling               : 4:2:0
Bit depth                        : 8 bits
Scan type                        : Progressive
Bits/(Pixel*Frame)               : 0.130
Stream size                      : 3.37 GiB (79%)
Title                            : x264 @ 2412 kbps @ crf 19
Writing library                  : x264 core 76 r1271 496d79d
Encoding settings                : cabac=1 / ref=8 / deblock=1:0:0 / analyse=0x3:0x133 / me=umh / subme=10 / psy=1 / psy_rd=1.0:0.0 / mixed_ref=1 / me_range=40 / chroma_me=1 / trellis=2 / 8x8dct=1 / cqm=0 / deadzone=21,11 / chroma_qp_offset=-2 / threads=3 / nr=0 / decimate=1 / mbaff=0 / bframes=10 / b_pyramid=0 / b_adapt=2 / b_bias=0 / direct=1 / wpredb=1 / keyint=250 / keyint_min=25 / scenecut=40 / rc_lookahead=100 / rc=crf / mbtree=1 / crf=19.0 / qcomp=0.60 / qpmin=10 / qpmax=51 / qpstep=4 / ip_ratio=1.40 / aq=2:1.00
Language                         : English[/b]

[IMG]http://img821.imageshack.us/img821/5307/2l3ravv.png[/IMG]
[b]Audio #1
ID                               : 2
Format                           : AC-3
Format/Info                      : Audio Coding 3
Mode extension                   : CM (complete main)
Muxing mode                      : Header stripping
Codec ID                         : A_AC3
Duration                         : 3h 48mn
Bit rate mode                    : Constant
Bit rate                         : 384 Kbps
Channel(s)                       : 6 channels
Channel positions                : Front: L C R, Side: L R, LFE
Sampling rate                    : 48.0 KHz
Bit depth                        : 16 bits
Compression mode                 : Lossy
Stream size                      : 627 MiB (14%)
Title                            : AC3 @ 384 kbps
Language                         : English

Audio #2
ID                               : 3
Format                           : MPEG Audio
Format version                   : Version 1
Format profile                   : Layer 3
Mode                             : Joint stereo
Mode extension                   : MS Stereo
Muxing mode                      : Header stripping
Codec ID                         : A_MPEG/L3
Codec ID/Hint                    : MP3
Duration                         : 3h 48mn
Bit rate mode                    : Constant
Bit rate                         : 128 Kbps
Channel(s)                       : 2 channels
Sampling rate                    : 48.0 KHz
Compression mode                 : Lossy
Delay relative to video          : 2s 850ms
Stream size                      : 209 MiB (5%)
Writing library                  : LAME3.98r
Encoding settings                : -m j -V 4 -q 2 -lowpass 17 -b 128[/b]

[IMG]http://img827.imageshack.us/img827/7996/ogtw21.gif[/IMG]
[IMG]http://img577.imageshack.us/img577/2195/thefellowshipoftheringh.jpg[/IMG]
[IMG]http://img232.imageshack.us/img232/2195/thefellowshipoftheringh.jpg[/IMG]
[IMG]http://img861.imageshack.us/img861/2195/thefellowshipoftheringh.jpg[/IMG]
[IMG]http://img848.imageshack.us/img848/2195/thefellowshipoftheringh.jpg[/IMG]
[IMG]http://img814.imageshack.us/img814/2195/thefellowshipoftheringh.jpg[/IMG]


[IMG]http://img819.imageshack.us/img819/4206/slqp2p1.gif[/IMG]

[IMG]http://img843.imageshack.us/img843/5108/seedyd3.gif[/IMG]

[IMG]http://img842.imageshack.us/img842/9185/e5ab9ad248f9074c.gif[/IMG]

[IMG]http://img806.imageshack.us/img806/4074/enjoy.png[/IMG]

[IMG]http://img831.imageshack.us/img831/91/15880378.png[/IMG]


[b][size="6"][font="Book Antiqua"]Do not Post my Rips without my consonant........[/font][/size] [/b][/center]